<svg id="Layer_1" data-name="Layer 1" xmlns="http://www.w3.org/2000/svg" viewBox="0 0 360 130.07"><defs><style>.cls-1{fill:#fff;}.cls-2{isolation:isolate;}.cls-3{fill:#056b38;}.cls-4{fill:#4b8cca;}.cls-5{fill:#fdb71c;}</style></defs><title>logo</title><rect class="cls-1" width="360" height="130.07"/><g class="cls-2"><path class="cls-3" d="M108,90.2h2.76a2.54,2.54,0,1,1,0,5.06h-1.64v3.32H108Zm2.76,4.12a1.59,1.59,0,1,0,0-3.18h-1.64v3.18Z"/></g><g class="cls-2"><path class="cls-3" d="M116.88,98.79a2.59,2.59,0,1,1,2.75-2.6A2.68,2.68,0,0,1,116.88,98.79Zm0-4.38a1.79,1.79,0,1,0,1.73,1.78A1.7,1.7,0,0,0,116.88,94.41Z"/></g><g class="cls-2"><path class="cls-3" d="M122.07,95.82v2.76h-1V93.82H122l.07.82a2.23,2.23,0,0,1,1.85-1v1C123,94.5,122.07,95,122.07,95.82Z"/></g><g class="cls-2"><path class="cls-3" d="M127.12,94.49v4.09h-1V94.49h-1v-.67h1V92.21h1v1.61h.95v.67Z"/><path class="cls-3" d="M129.44,98.58V90.2h1v8.38Z"/><path class="cls-3" d="M136.17,98.58l-.06-.75a2.26,2.26,0,0,1-1.84.93,2.57,2.57,0,0,1,0-5.12,2.28,2.28,0,0,1,1.84.93l.06-.75h.9v4.76ZM133,96.21A1.6,1.6,0,0,0,134.51,98a1.79,1.79,0,0,0,0-3.56A1.61,1.61,0,0,0,133,96.21Z"/></g><g class="cls-2"><path class="cls-3" d="M142.51,98.58V95.77c0-.9-.38-1.31-1.1-1.31a1.57,1.57,0,0,0-1.55,1.4v2.72h-1V93.82h.91l.07.82a2.39,2.39,0,0,1,1.92-1c1.29,0,1.79.89,1.79,2.08v2.86Z"/></g><g class="cls-2"><path class="cls-3" d="M149,98.58l0-.75a2.3,2.3,0,0,1-1.85.93,2.57,2.57,0,0,1,0-5.12,2.21,2.21,0,0,1,1.79.86V90.2h1v8.38Zm-3.2-2.37A1.6,1.6,0,0,0,147.29,98a1.79,1.79,0,0,0,0-3.56A1.61,1.61,0,0,0,145.75,96.21Z"/></g><g class="cls-2"><path class="cls-3" d="M153.7,94.39A4.26,4.26,0,0,1,158.16,90a5.11,5.11,0,0,1,2.9.88v1.16a4.18,4.18,0,0,0-2.9-1.1,3.44,3.44,0,0,0,0,6.87,4.14,4.14,0,0,0,2.9-1.11v1.16a5.11,5.11,0,0,1-2.9.88A4.26,4.26,0,0,1,153.7,94.39Z"/></g><g class="cls-2"><path class="cls-3" d="M165.25,98.79a2.59,2.59,0,1,1,2.75-2.6A2.68,2.68,0,0,1,165.25,98.79Zm0-4.38A1.79,1.79,0,1,0,167,96.19,1.7,1.7,0,0,0,165.25,94.41Z"/></g><g class="cls-2"><path class="cls-3" d="M176.3,98.58V95.76c0-.89-.29-1.3-1-1.3a1.46,1.46,0,0,0-1.43,1.4v2.72h-1V95.76c0-.89-.27-1.3-1-1.3a1.45,1.45,0,0,0-1.41,1.4v2.72h-1V93.82h.91l.07.82a2.13,2.13,0,0,1,1.78-1,1.47,1.47,0,0,1,1.58,1.09,2.29,2.29,0,0,1,1.87-1.09c1.29,0,1.69.89,1.69,2.08v2.86Z"/><path class="cls-3" d="M185.7,98.58V95.76c0-.89-.3-1.3-1-1.3a1.46,1.46,0,0,0-1.42,1.4v2.72h-1V95.76c0-.89-.28-1.3-1-1.3a1.45,1.45,0,0,0-1.41,1.4v2.72h-1V93.82h.91l.07.82a2.14,2.14,0,0,1,1.79-1,1.48,1.48,0,0,1,1.58,1.09A2.27,2.27,0,0,1,185,93.64c1.28,0,1.69.89,1.69,2.08v2.86Z"/><path class="cls-3" d="M192,98.58l-.07-.82a2.39,2.39,0,0,1-1.92,1c-1.29,0-1.79-.89-1.79-2.08V93.82h1v2.8c0,.91.38,1.32,1.1,1.32a1.57,1.57,0,0,0,1.55-1.4V93.82h1v4.76Z"/><path class="cls-3" d="M198.07,98.58V95.77c0-.9-.38-1.31-1.11-1.31a1.58,1.58,0,0,0-1.55,1.4v2.72h-1V93.82h.91l.07.82a2.4,2.4,0,0,1,1.93-1c1.28,0,1.78.89,1.78,2.08v2.86Z"/></g><g class="cls-2"><path class="cls-3" d="M200.52,92.2V91.08h1V92.2Zm0,6.38V93.82h1v4.76Z"/></g><g class="cls-2"><path class="cls-3" d="M204.89,94.49v4.09h-1V94.49h-1v-.67h1V92.21h1v1.61h1v.67Z"/></g><g class="cls-2"><path class="cls-3" d="M208.5,101.3h-1l1.3-2.94-2-4.54h1l1.52,3.59,1.51-3.59h1Z"/></g><g class="cls-2"><path class="cls-3" d="M214.9,94.39A4.26,4.26,0,0,1,219.36,90a5.11,5.11,0,0,1,2.9.88v1.16a4.18,4.18,0,0,0-2.9-1.1,3.44,3.44,0,0,0,0,6.87,4.14,4.14,0,0,0,2.9-1.11v1.16a5.11,5.11,0,0,1-2.9.88A4.26,4.26,0,0,1,214.9,94.39Z"/></g><g class="cls-2"><path class="cls-3" d="M226.46,98.79a2.59,2.59,0,1,1,2.75-2.6A2.68,2.68,0,0,1,226.46,98.79Zm0-4.38a1.79,1.79,0,1,0,1.73,1.78A1.7,1.7,0,0,0,226.46,94.41Z"/></g><g class="cls-2"><path class="cls-3" d="M230.35,98.58V90.2h1v8.38Z"/></g><g class="cls-2"><path class="cls-3" d="M233.4,98.58V90.2h1v8.38Z"/></g><g class="cls-2"><path class="cls-3" d="M240.31,96.07h-3.42a1.63,1.63,0,0,0,1.8,1.9,2.54,2.54,0,0,0,1.61-.67v.81a2.87,2.87,0,0,1-1.9.65,2.41,2.41,0,0,1-2.51-2.57,2.38,2.38,0,0,1,2.37-2.55,2,2,0,0,1,2.12,1.91A2.32,2.32,0,0,1,240.31,96.07Zm-2-1.69a1.29,1.29,0,0,0-1.29,1h2.4a.8.8,0,0,0,0-.11C239.39,94.82,239,94.38,238.27,94.38Z"/><path class="cls-3" d="M243.84,101.36a4,4,0,0,1-2-.59v-.88a3.36,3.36,0,0,0,2.08.65c.79,0,1.59-.48,1.59-1.89V97.9a2.22,2.22,0,0,1-1.79.86,2.57,2.57,0,0,1,0-5.12,2.24,2.24,0,0,1,1.84.93l.06-.75h.91V98.5C246.57,100.84,245.09,101.36,243.84,101.36Zm.16-6.94A1.8,1.8,0,0,0,244,98a1.79,1.79,0,0,0,0-3.56Z"/></g><g class="cls-2"><path class="cls-3" d="M252.16,96.07h-3.42a1.63,1.63,0,0,0,1.8,1.9,2.54,2.54,0,0,0,1.61-.67v.81a2.87,2.87,0,0,1-1.9.65,2.41,2.41,0,0,1-2.51-2.57,2.38,2.38,0,0,1,2.37-2.55,2,2,0,0,1,2.12,1.91A2.32,2.32,0,0,1,252.16,96.07Zm-2-1.69a1.29,1.29,0,0,0-1.29,1h2.4a.8.8,0,0,0,0-.11C251.24,94.82,250.86,94.38,250.12,94.38Z"/></g><g class="cls-2"><path class="cls-4" d="M84.41,84.89H82.14V79.3h2.17c1.2,0,1.69.67,1.69,1.47a1.44,1.44,0,0,1-.6,1.09,1.55,1.55,0,0,1,.9,1.39C86.3,84.15,85.75,84.89,84.41,84.89Zm-1.13-3.34h.85a.7.7,0,0,0,.8-.73c0-.41-.24-.72-.8-.72h-.85Zm.93.79h-.93V84.1h.93c.71,0,1-.38,1-.89S84.92,82.34,84.21,82.34Z"/><path class="cls-4" d="M92.76,84.89H91.51L90,82.67h-.69v2.22H88.13V79.3h2.2A1.66,1.66,0,0,1,92.22,81a1.52,1.52,0,0,1-1.12,1.55Zm-3.49-3h.87c.71,0,1-.37,1-.86s-.25-.89-1-.89h-.87Z"/><path class="cls-4" d="M94.46,84.89V79.3H98.1v.89H95.6V81.5h2v.89h-2V84h2.5v.88Z"/><path class="cls-4" d="M104.05,84.89l-.57-1.38h-2.26l-.57,1.38h-1.1l2.38-5.59h.88l2.37,5.59Zm-1.69-4.2-.83,2h1.64Z"/><path class="cls-4" d="M110.43,84.89,108,82.26v2.63h-1.13V79.3H108v2.56l2.26-2.56h1.24L109,82l2.78,2.92Z"/><path class="cls-4" d="M113.29,84.89V79.3h1.13v5.59Z"/><path class="cls-4" d="M120.52,84.89,117.6,81.2v3.69h-1V79.3h.79L120.29,83V79.3h1v5.59Z"/><path class="cls-4" d="M126.18,85.05a2.94,2.94,0,1,1,.07-5.87,3.54,3.54,0,0,1,2,.57v1a2.75,2.75,0,0,0-1.87-.69,2,2,0,0,0-.07,4.09,2.33,2.33,0,0,0,1.08-.23V82.87h-1V82h2.08V84.5A5.73,5.73,0,0,1,126.18,85.05Z"/><path class="cls-4" d="M135.43,84.89h-2.26V79.3h2.17c1.2,0,1.69.67,1.69,1.47a1.44,1.44,0,0,1-.6,1.09,1.54,1.54,0,0,1,.89,1.39C137.32,84.15,136.77,84.89,135.43,84.89Zm-1.12-3.34h.84c.57,0,.81-.32.81-.73s-.24-.72-.81-.72h-.84Zm.93.79h-.93V84.1h.93c.71,0,1-.38,1-.89S136,82.34,135.24,82.34Z"/><path class="cls-4" d="M143.11,84.89l-.56-1.38h-2.27l-.56,1.38h-1.1L141,79.3h.89l2.37,5.59Zm-1.69-4.2-.83,2h1.65Z"/><path class="cls-4" d="M150.51,84.89h-1.25l-1.55-2.22H147v2.22h-1.14V79.3h2.2A1.66,1.66,0,0,1,150,81a1.52,1.52,0,0,1-1.12,1.55Zm-3.49-3h.87c.71,0,1-.37,1-.86s-.25-.89-1-.89H147Z"/><path class="cls-4" d="M156.84,84.89h-1.25L154,82.67h-.69v2.22h-1.14V79.3h2.2A1.66,1.66,0,0,1,156.3,81a1.52,1.52,0,0,1-1.12,1.55Zm-3.49-3h.87c.71,0,1-.37,1-.86s-.25-.89-1-.89h-.87Z"/><path class="cls-4" d="M158.54,84.89V79.3h1.14v5.59Z"/><path class="cls-4" d="M161.84,84.89V79.3h3.64v.89H163V81.5h2v.89h-2V84h2.51v.88Z"/><path class="cls-4" d="M172.1,84.89h-1.25l-1.55-2.22h-.69v2.22h-1.14V79.3h2.2A1.66,1.66,0,0,1,171.56,81a1.52,1.52,0,0,1-1.12,1.55Zm-3.49-3h.87c.71,0,1-.37,1-.86s-.25-.89-1-.89h-.87Z"/></g><g class="cls-2"><path class="cls-4" d="M175.41,85a3,3,0,0,1-2-.7l.26-.89a2.53,2.53,0,0,0,1.72.75c.56,0,1-.28,1-.77s-.26-.71-1.17-.93c-1.18-.29-1.64-.91-1.64-1.71s.72-1.58,1.92-1.58a2.89,2.89,0,0,1,1.68.55l-.24.79A2.82,2.82,0,0,0,175.5,80c-.54,0-.87.24-.87.64s.2.58,1,.77c1.3.32,1.86.87,1.86,1.84C177.45,84.48,176.46,85,175.41,85Z"/></g><g class="cls-2"><path class="cls-4" d="M178.38,86.13l-.19-.28a1.08,1.08,0,0,0,.57-1h-.56V83.76h1.13v1A1.43,1.43,0,0,1,178.38,86.13Z"/></g><g class="cls-2"><path class="cls-4" d="M186.76,85a2.92,2.92,0,1,1,0-5.83,3.41,3.41,0,0,1,2,.57v1a2.68,2.68,0,0,0-1.83-.69,2,2,0,0,0,0,4,2.73,2.73,0,0,0,1.83-.69v1A3.33,3.33,0,0,1,186.76,85Z"/><path class="cls-4" d="M195.75,84.89H194.5L193,82.67h-.7v2.22h-1.13V79.3h2.2A1.66,1.66,0,0,1,195.21,81a1.52,1.52,0,0,1-1.12,1.55Zm-3.5-3h.88c.71,0,1-.37,1-.86s-.25-.89-1-.89h-.88Z"/><path class="cls-4" d="M197.92,84.89V79.3h3.63v.89h-2.5V81.5h2v.89h-2V84h2.5v.88Z"/></g><g class="cls-2"><path class="cls-4" d="M208,84.89l-.57-1.38h-2.26l-.57,1.38h-1.1l2.38-5.59h.88l2.38,5.59Zm-1.69-4.2-.83,2h1.64Z"/></g><g class="cls-2"><path class="cls-4" d="M213,80.19v4.7h-1.14v-4.7H210V79.3h4.92v.89Z"/><path class="cls-4" d="M217,84.89V79.3h1.14v5.59Z"/><path class="cls-4" d="M224.69,84.89l-2.92-3.69v3.69h-1V79.3h.79L224.47,83V79.3h1v5.59Z"/><path class="cls-4" d="M230.82,85.05a2.94,2.94,0,1,1,.07-5.87,3.48,3.48,0,0,1,2,.57v1A2.71,2.71,0,0,0,231,80.1a2,2,0,0,0-.06,4.09A2.33,2.33,0,0,0,232,84V82.87h-1V82h2.08V84.5A5.73,5.73,0,0,1,230.82,85.05Z"/></g><g class="cls-2"><path class="cls-4" d="M240.52,85a2.92,2.92,0,1,1,0-5.83,3.41,3.41,0,0,1,1.95.57v1a2.68,2.68,0,0,0-1.83-.69,2,2,0,0,0,0,4,2.73,2.73,0,0,0,1.83-.69v1A3.33,3.33,0,0,1,240.52,85Z"/><path class="cls-4" d="M248.65,84.89V82.42H246v2.47h-1.13V79.3H246v2.16h2.64V79.3h1.13v5.59Z"/><path class="cls-4" d="M256.37,84.89l-.57-1.38h-2.26L253,84.89h-1.1l2.37-5.59h.89l2.37,5.59Zm-1.7-4.2-.83,2h1.65Z"/><path class="cls-4" d="M263.54,84.89l-2.93-3.69v3.69h-1V79.3h.79L263.31,83V79.3h1v5.59Z"/><path class="cls-4" d="M269.66,85.05a2.94,2.94,0,1,1,.08-5.87,3.53,3.53,0,0,1,2,.57v1a2.73,2.73,0,0,0-1.87-.69,2,2,0,0,0-.07,4.09,2.33,2.33,0,0,0,1.08-.23V82.87h-1V82H272V84.5A5.73,5.73,0,0,1,269.66,85.05Z"/></g><g class="cls-2"><path class="cls-4" d="M274.56,84.89V79.3h3.64v.89h-2.5V81.5h2v.89h-2V84h2.5v.88Z"/></g><g class="cls-2"><path class="cls-4" d="M61.45,70.74,58.6,63.66H47l-2.85,7.08H42.74L52.23,47h1.15l9.49,23.73ZM52.78,49,47.45,62.43H58.12Z"/></g><g class="cls-2"><path class="cls-4" d="M67.5,70.74V47h1.34v22.5H80.11v1.23Z"/><path class="cls-4" d="M85.1,70.74V47H97.71v1.23H86.44v9.41h9.3v1.23h-9.3V69.51H97.71v1.23Z"/></g><g class="cls-2"><path class="cls-4" d="M120.73,70.74h-1.62L111.4,59.59l-7.68,11.15h-1.54l8.39-12.18L102.62,47h1.62l7.24,10.52L118.75,47h1.54l-7.94,11.55Z"/></g><g class="cls-2"><path class="cls-5" d="M143.6,70.74h-8.35V47h8.35c9.49,0,13.48,5.34,13.48,11.87S153.09,70.74,143.6,70.74Zm-.24-19.85h-3.28v16h3.28c6.48,0,8.78-3.24,8.78-8S149.84,50.89,143.36,50.89Z"/></g><g class="cls-2"><path class="cls-5" d="M161.15,70.74V47H166V70.74Z"/></g><g class="cls-2"><path class="cls-5" d="M189.59,70.74l-2.41-5.85h-9.61l-2.42,5.85h-4.66L180.57,47h3.76l10.09,23.73Zm-7.2-17.84-3.52,8.63h7Z"/></g><g class="cls-2"><path class="cls-5" d="M217,49.34,205.44,67h11.47v3.76H199.35V68.41L210.9,50.77H199.51V47H217Z"/></g><g class="cls-2"><path class="cls-5" d="M220.56,64.13v-3h8.27v3Z"/><path class="cls-5" d="M254.38,70.74h-5.3l-6.57-9.45h-3v9.45h-4.82V47h9.33c5.62,0,8,3.32,8,7.16a6.47,6.47,0,0,1-4.74,6.6ZM239.54,57.89h3.72c3,0,4.08-1.59,4.08-3.68s-1.07-3.76-4.08-3.76h-3.72Z"/><path class="cls-5" d="M259.2,70.74V47H264V70.74Z"/><path class="cls-5" d="M282.57,71.41c-7.27,0-12.93-5.26-12.93-12.53s5.66-12.54,12.93-12.54,12.82,5.26,12.82,12.54S289.81,71.41,282.57,71.41Zm0-21.24c-4.74,0-7.87,3.56-7.87,8.71s3.13,8.7,7.87,8.7,7.76-3.56,7.76-8.7S287.24,50.17,282.57,50.17Z"/><path class="cls-5" d="M308,71.21a12.72,12.72,0,0,1-8.42-3l1.11-3.8A10.68,10.68,0,0,0,308,67.66c2.38,0,4.2-1.19,4.2-3.29s-1.11-3-5-4c-5-1.23-7-3.88-7-7.28,0-3.88,3.09-6.68,8.19-6.68a12,12,0,0,1,7.12,2.33l-1,3.36a11.91,11.91,0,0,0-6.13-2.06c-2.33,0-3.72,1-3.72,2.73,0,1.39.83,2.46,4.08,3.25,5.53,1.38,7.91,3.72,7.91,7.83C316.71,69,312.51,71.21,308,71.21Z"/></g><polygon class="cls-3" points="322.15 95.43 257.45 95.43 257.45 94.43 321.15 94.43 321.15 40.69 38.85 40.69 38.85 94.43 102.55 94.43 102.55 95.43 37.85 95.43 37.85 39.69 322.15 39.69 322.15 95.43"/><g class="cls-2"><path class="cls-4" d="M149.68,26.21h1.14l2.85,6.68,2.85-6.68h1.09L154,34.59h-.73Z"/></g><g class="cls-2"><path class="cls-4" d="M158.36,30.4a4.45,4.45,0,1,1,4.46,4.43A4.3,4.3,0,0,1,158.36,30.4Zm7.74,0a3.3,3.3,0,1,0-6.58,0,3.3,3.3,0,1,0,6.58,0Z"/></g><g class="cls-2"><path class="cls-4" d="M170.94,27.15h-3v-.94H175v.94h-3v7.44h-1.12Z"/><path class="cls-4" d="M176.71,26.21h5.06v.94h-4V29.7h3.26v.94h-3.26v3h4v.94h-5.06Z"/></g><g class="cls-2"><path class="cls-4" d="M187,26.21H192v.94h-4V29.7h3.25v.94h-3.25v4H187Z"/></g><g class="cls-2"><path class="cls-4" d="M193.17,30.4a4.45,4.45,0,1,1,4.46,4.43A4.3,4.3,0,0,1,193.17,30.4Zm7.74,0a3.3,3.3,0,1,0-6.58,0,3.3,3.3,0,1,0,6.58,0Z"/><path class="cls-4" d="M204.11,26.21h2.76c1.91,0,2.74,1.11,2.74,2.46A2.24,2.24,0,0,1,207.88,31l2.54,3.59h-1.3l-2.4-3.46h-1.5v3.46h-1.11Zm2.76,4a1.52,1.52,0,1,0,0-3h-1.65v3Z"/></g></svg>